<?xml version="1.0" encoding="UTF-8" standalone="no"?><!DOCTYPE svg PUBLIC "-//W3C//DTD SVG 1.1//EN" "http://www.w3.org/Graphics/SVG/1.1/DTD/svg11.dtd"><svg width="100%" height="100%" viewBox="0 0 4846 1446" version="1.1" xmlns="http://www.w3.org/2000/svg" xmlns:xlink="http://www.w3.org/1999/xlink" xml:space="preserve" xmlns:serif="http://www.serif.com/" style="fill-rule:evenodd;clip-rule:evenodd;stroke-linejoin:round;stroke-miterlimit:2;"><g><text x="1320.01px" y="1007.84px" style="font-family:'ForteMT', 'Forte', cursive;font-style:italic;font-size:929.926px;fill:#ff8057;">V<tspan x="1807.22px 2039.71px 2422.03px 2935.12px " y="1007.84px 1007.84px 1007.84px 1007.84px ">ivaH</tspan>ow</text><path d="M707.485,106.25c340.347,0 616.666,276.319 616.666,616.667c0,340.347 -276.319,616.666 -616.666,616.666c-340.348,0 -616.667,-276.319 -616.667,-616.666c0,-340.348 276.319,-616.667 616.667,-616.667Zm101.758,695.219l-6.854,22.433c-1.141,4.987 -2.969,11.673 -5.484,20.058c-12.337,42.829 -22.47,70.936 -30.397,84.322c-1.584,2.724 -4.527,6.695 -8.831,11.913c-14.718,13.386 -32.608,20.079 -53.67,20.079c-16.758,-0 -30.233,-3.684 -40.424,-11.052c-10.191,-7.368 -15.286,-16.833 -15.286,-28.394c-0,-8.388 2.955,-23.405 8.865,-45.05c5.91,-21.644 12.502,-42.213 19.774,-61.706c-17.733,-3.4 -26.599,-10.998 -26.599,-22.794c0,-8.392 2.773,-17.861 8.318,-28.408c5.546,-10.547 12.506,-20.017 20.882,-28.41c8.375,-8.393 16.523,-13.837 24.444,-16.331c3.407,-9.744 9.882,-30.256 19.425,-61.533c21.551,-67.777 39.019,-113.227 52.405,-136.351c5.445,-7.708 10.096,-13.715 13.953,-18.023c11.796,-11.108 26.882,-16.662 45.259,-16.662c11.342,-0 21.38,1.984 30.113,5.953c8.734,3.969 15.426,9.412 20.077,16.328c4.651,6.916 6.976,15.024 6.976,24.322c0,12.925 -16.211,67.215 -48.633,162.869c-0.453,1.587 -1.19,3.911 -2.21,6.971c-1.02,3.061 -1.984,5.838 -2.89,8.332l-1.361,2.72l125.411,-2.72l6.121,-21.424c7.028,-23.123 14.395,-45.963 22.103,-68.52c7.708,-22.557 14.339,-40.693 19.893,-54.409c5.555,-13.715 11.179,-25.787 16.873,-36.215c5.694,-10.429 11.047,-18.25 16.059,-23.464c11.842,-12.922 28.127,-19.383 48.856,-19.383c35.387,-0 53.081,15.302 53.081,45.907c-0,28.791 -15.416,81.315 -46.248,157.572c-4.558,11.264 -7.293,18.136 -8.203,20.616c0.899,-0.227 1.687,-0.397 2.361,-0.51c0.675,-0.114 1.462,-0.17 2.362,-0.17c12.377,-0 22.166,2.213 29.367,6.639c7.201,4.426 10.802,10.383 10.802,17.871c-0,4.995 -3.046,12.145 -9.139,21.45c-6.096,9.305 -12.586,17.533 -19.471,24.683c-6.884,7.15 -12.809,12.2 -17.775,15.151c-4.74,2.497 -13.994,5.108 -27.763,7.832l-1.365,5.441c-1.591,3.397 -3.978,9.627 -7.162,18.692c-4.775,13.142 -9.665,26.341 -14.668,39.598c-5.003,13.256 -9.151,23.565 -12.444,30.926c-3.292,7.361 -6.529,13.531 -9.71,18.511c-3.861,5.438 -8.289,10.082 -13.283,13.932c-10.9,8.377 -23.389,15.227 -37.47,20.549c-14.08,5.322 -25.775,7.984 -35.084,7.984c-10.672,-0 -19.075,-2.608 -25.206,-7.822c-6.132,-5.214 -9.197,-12.582 -9.197,-22.103c-0,-16.323 8.52,-50.215 25.562,-101.676c4.035,-11.335 6.836,-19.61 8.406,-24.824l-120.921,-1.7Zm-260.242,-258.084c12.922,-12.476 25.448,-23.022 37.576,-31.639c12.129,-8.616 20.46,-12.924 24.994,-12.924c7.028,-0 10.542,6.687 10.542,20.063c-0,15.642 -1.755,32.588 -5.266,50.838c-3.51,18.249 -8.324,36.102 -14.441,53.558c-9.968,29.698 -23.106,62.627 -39.415,98.786c-16.308,36.159 -32.172,68.067 -47.591,95.724c-9.979,17.457 -22.904,38.54 -38.777,63.25c-12.472,19.043 -23.526,33.042 -33.163,41.997c-9.637,8.955 -21.144,16.266 -34.523,21.933c-11.792,4.534 -21.997,7.595 -30.616,9.182c-10.428,1.813 -18.818,2.72 -25.169,2.72c-11.339,0 -19.955,-2.72 -25.849,-8.161c-7.032,-7.481 -13.494,-20.517 -19.389,-39.106c-7.031,-22.67 -14.118,-52.595 -21.261,-89.774c-7.143,-37.179 -11.961,-69.484 -14.455,-96.915c-1.813,-19.043 -2.72,-45.794 -2.72,-80.253c-0,-62.796 6.801,-100.996 20.403,-114.598c4.761,-4.76 13.659,-10.371 26.694,-16.832c13.036,-6.461 25.901,-11.392 38.596,-14.793c9.975,-2.72 18.363,-4.08 25.164,-4.08c16.776,-0 25.164,9.295 25.164,27.884c0,9.748 -1.02,28.565 -3.06,56.449c-3.628,56.222 -5.441,100.316 -5.441,132.28c-0,55.769 2.41,97.596 7.231,125.48c2.756,13.375 4.823,22.67 6.201,27.884c8.678,-11.306 15.929,-21.766 21.753,-31.377c5.823,-9.612 11.446,-19.863 16.869,-30.751c11.073,-22.681 18.87,-40.259 23.39,-52.735c14.427,-35.603 25.812,-73.019 34.154,-112.25c5.412,-27.894 11.613,-47.851 18.602,-59.87c5.214,-9.979 13.148,-20.635 23.803,-31.97Z" style="fill:#ff8057;"/></g></svg>